<svg width="630" height="670" viewBox="0 0 630 670" fill="none" xmlns="http://www.w3.org/2000/svg">
<path fill-rule="evenodd" clip-rule="evenodd" d="M368.133 11.4971C362.817 11.4971 358.508 15.8063 358.508 21.1221C358.508 26.4378 362.817 30.7471 368.133 30.7471C373.449 30.7471 377.758 26.4378 377.758 21.1221C377.758 15.8063 373.449 11.4971 368.133 11.4971ZM368.133 0.49707C356.742 0.497068 347.508 9.73119 347.508 21.1221C347.508 28.5035 351.385 34.9793 357.215 38.6236L357.215 203.088C360.764 200.529 364.435 198.017 368.215 195.581L368.215 41.7469C379.568 41.7027 388.758 32.4856 388.758 21.1221C388.758 9.7312 379.524 0.49707 368.133 0.49707ZM390.211 183.02C386.473 184.882 382.803 186.85 379.211 188.9L379.211 110.726C379.211 107.688 381.673 105.226 384.711 105.226C387.749 105.226 390.211 107.688 390.211 110.726L390.211 183.02ZM415.195 172.652C411.486 173.877 407.816 175.232 404.195 176.7L404.195 96.2737C393.631 95.3641 385.34 86.5004 385.34 75.7002C385.34 64.2953 394.585 55.0498 405.99 55.0498C417.395 55.0498 426.641 64.2953 426.641 75.7002C426.641 83.7975 421.98 90.8063 415.195 94.1905L415.195 172.652ZM444.168 166.367C440.502 166.788 436.823 167.329 433.168 168.009L433.168 46.0079C427.078 42.4365 422.988 35.8213 422.988 28.251C422.988 16.8903 432.198 7.68066 443.559 7.68066C454.919 7.68066 464.129 16.8903 464.129 28.251C464.129 39.4078 455.247 48.4901 444.168 48.8124L444.168 166.367ZM463.204 165.152C459.607 165.213 455.927 165.364 452.204 165.627V97.1864L482.404 65.9162L482.462 65.9722C482.446 65.6283 482.438 65.2824 482.438 64.9346C482.438 52.9925 492.118 43.3115 504.061 43.3115C516.003 43.3115 525.684 52.9925 525.684 64.9346C525.684 74.6398 519.29 82.8516 510.484 85.5874L510.484 169.259C508.154 168.725 504.361 168.02 499.484 167.343L499.484 98.1509L485.971 111.665L485.971 165.883C482.515 165.608 478.828 165.389 474.971 165.258L474.971 107.109L496.778 85.3006C492.603 83.8076 489.021 81.0672 486.482 77.5285L463.204 101.631V165.152ZM322.73 232.821C318.507 237.199 314.816 241.391 311.73 245.245L311.73 104.221C302.953 102.328 296.375 94.5206 296.375 85.1768C296.375 74.4169 305.098 65.6943 315.857 65.6943C326.617 65.6943 335.34 74.4169 335.34 85.1768C335.34 93.5173 330.099 100.634 322.73 103.412L322.73 232.821ZM346.234 211.448C342.369 214.553 338.694 217.681 335.234 220.786L335.234 124.694C335.234 121.657 337.697 119.194 340.734 119.194C343.772 119.194 346.234 121.657 346.234 124.694L346.234 211.448ZM315.857 76.6943C311.173 76.6943 307.375 80.492 307.375 85.1768C307.375 89.8615 311.173 93.6592 315.857 93.6592C320.542 93.6592 324.34 89.8615 324.34 85.1768C324.34 80.492 320.542 76.6943 315.857 76.6943ZM396.34 75.7002C396.34 70.3704 400.66 66.0498 405.99 66.0498C411.32 66.0498 415.641 70.3704 415.641 75.7002C415.641 81.03 411.32 85.3506 405.99 85.3506C400.66 85.3506 396.34 81.03 396.34 75.7002ZM443.559 18.6807C438.273 18.6807 433.988 22.9654 433.988 28.251C433.988 33.5365 438.273 37.8213 443.559 37.8213C448.844 37.8213 453.129 33.5365 453.129 28.251C453.129 22.9654 448.844 18.6807 443.559 18.6807ZM493.438 64.9346C493.438 59.0676 498.194 54.3115 504.061 54.3115C509.927 54.3115 514.684 59.0676 514.684 64.9346C514.684 70.8015 509.927 75.5576 504.061 75.5576C498.194 75.5576 493.438 70.8015 493.438 64.9346Z" fill="#0B0920"/>
<path fill-rule="evenodd" clip-rule="evenodd" d="M368.133 11.4971C362.817 11.4971 358.508 15.8063 358.508 21.1221C358.508 26.4378 362.817 30.7471 368.133 30.7471C373.449 30.7471 377.758 26.4378 377.758 21.1221C377.758 15.8063 373.449 11.4971 368.133 11.4971ZM368.133 0.49707C356.742 0.497068 347.508 9.73119 347.508 21.1221C347.508 28.5035 351.385 34.9793 357.215 38.6236L357.215 203.088C360.764 200.529 364.435 198.017 368.215 195.581L368.215 41.7469C379.568 41.7027 388.758 32.4856 388.758 21.1221C388.758 9.7312 379.524 0.49707 368.133 0.49707ZM390.211 183.02C386.473 184.882 382.803 186.85 379.211 188.9L379.211 110.726C379.211 107.688 381.673 105.226 384.711 105.226C387.749 105.226 390.211 107.688 390.211 110.726L390.211 183.02ZM415.195 172.652C411.486 173.877 407.816 175.232 404.195 176.7L404.195 96.2737C393.631 95.3641 385.34 86.5004 385.34 75.7002C385.34 64.2953 394.585 55.0498 405.99 55.0498C417.395 55.0498 426.641 64.2953 426.641 75.7002C426.641 83.7975 421.98 90.8063 415.195 94.1905L415.195 172.652ZM444.168 166.367C440.502 166.788 436.823 167.329 433.168 168.009L433.168 46.0079C427.078 42.4365 422.988 35.8213 422.988 28.251C422.988 16.8903 432.198 7.68066 443.559 7.68066C454.919 7.68066 464.129 16.8903 464.129 28.251C464.129 39.4078 455.247 48.4901 444.168 48.8124L444.168 166.367ZM463.204 165.152C459.607 165.213 455.927 165.364 452.204 165.627V97.1864L482.404 65.9162L482.462 65.9722C482.446 65.6283 482.438 65.2824 482.438 64.9346C482.438 52.9925 492.118 43.3115 504.061 43.3115C516.003 43.3115 525.684 52.9925 525.684 64.9346C525.684 74.6398 519.29 82.8516 510.484 85.5874L510.484 169.259C508.154 168.725 504.361 168.02 499.484 167.343L499.484 98.1509L485.971 111.665L485.971 165.883C482.515 165.608 478.828 165.389 474.971 165.258L474.971 107.109L496.778 85.3006C492.603 83.8076 489.021 81.0672 486.482 77.5285L463.204 101.631V165.152ZM322.73 232.821C318.507 237.199 314.816 241.391 311.73 245.245L311.73 104.221C302.953 102.328 296.375 94.5206 296.375 85.1768C296.375 74.4169 305.098 65.6943 315.857 65.6943C326.617 65.6943 335.34 74.4169 335.34 85.1768C335.34 93.5173 330.099 100.634 322.73 103.412L322.73 232.821ZM346.234 211.448C342.369 214.553 338.694 217.681 335.234 220.786L335.234 124.694C335.234 121.657 337.697 119.194 340.734 119.194C343.772 119.194 346.234 121.657 346.234 124.694L346.234 211.448ZM315.857 76.6943C311.173 76.6943 307.375 80.492 307.375 85.1768C307.375 89.8615 311.173 93.6592 315.857 93.6592C320.542 93.6592 324.34 89.8615 324.34 85.1768C324.34 80.492 320.542 76.6943 315.857 76.6943ZM396.34 75.7002C396.34 70.3704 400.66 66.0498 405.99 66.0498C411.32 66.0498 415.641 70.3704 415.641 75.7002C415.641 81.03 411.32 85.3506 405.99 85.3506C400.66 85.3506 396.34 81.03 396.34 75.7002ZM443.559 18.6807C438.273 18.6807 433.988 22.9654 433.988 28.251C433.988 33.5365 438.273 37.8213 443.559 37.8213C448.844 37.8213 453.129 33.5365 453.129 28.251C453.129 22.9654 448.844 18.6807 443.559 18.6807ZM493.438 64.9346C493.438 59.0676 498.194 54.3115 504.061 54.3115C509.927 54.3115 514.684 59.0676 514.684 64.9346C514.684 70.8015 509.927 75.5576 504.061 75.5576C498.194 75.5576 493.438 70.8015 493.438 64.9346Z" fill="url(#paint0_linear_13555_49315)"/>
<path fill-rule="evenodd" clip-rule="evenodd" d="M89.4375 493.933V535.465C89.4375 538.502 91.8999 540.965 94.9375 540.965C97.9751 540.965 100.438 538.502 100.438 535.465V497.416C96.6898 496.416 93.0181 495.257 89.4375 493.933ZM113.31 500.193V531.821L90.6523 559.983L90.8124 560.112C88.5035 559.254 86.0057 558.786 83.3984 558.786C71.6322 558.786 62.0938 568.325 62.0938 580.091C62.0938 591.857 71.6322 601.396 83.3984 601.396C95.1647 601.396 104.703 591.857 104.703 580.091C104.703 574.845 102.807 570.043 99.6637 566.33L124.31 535.697V501.627C120.6 501.276 116.93 500.799 113.31 500.193ZM137.863 502.365V549.297C131.132 552.365 126.453 559.153 126.453 567.033C126.453 577.793 135.176 586.516 145.936 586.516C156.695 586.516 165.418 577.793 165.418 567.033C165.418 557.268 158.234 549.182 148.863 547.769V502.212C145.181 502.37 141.51 502.422 137.863 502.365ZM162.422 501.17V545.49L173.422 558.181V499.996H171.342C168.373 500.45 165.398 500.842 162.422 501.17ZM187.317 496.952V630.411C177.52 631.435 169.883 639.719 169.883 649.787C169.883 660.547 178.605 669.27 189.365 669.27C200.125 669.27 208.848 660.547 208.848 649.787C208.848 642.255 204.573 635.721 198.317 632.479V495.562H193.064C191.156 496.05 189.24 496.514 187.317 496.952ZM211.531 490.009V586.622H212.249C209.021 590.099 207.047 594.756 207.047 599.875C207.047 610.635 215.769 619.357 226.529 619.357C237.289 619.357 246.012 610.635 246.012 599.875C246.012 589.115 237.289 580.393 226.529 580.393C225.159 580.393 223.822 580.534 222.531 580.803V487.377H218.713C216.345 488.291 213.95 489.168 211.531 490.009ZM235.062 480.284V573.662C235.062 576.7 237.525 579.162 240.562 579.162C243.6 579.162 246.062 576.7 246.062 573.662V475.44H244.411C241.376 477.118 238.257 478.734 235.062 480.284ZM260.641 465.289V596.217C256.407 599.791 253.719 605.137 253.719 611.11C253.719 621.87 262.441 630.593 273.201 630.593C283.961 630.593 292.684 621.87 292.684 611.11C292.684 600.351 283.961 591.628 273.201 591.628C272.676 591.628 272.155 591.649 271.641 591.69V459.411H268.384C265.917 461.421 263.332 463.382 260.641 465.289ZM145.936 575.516C150.62 575.516 154.418 571.718 154.418 567.033C154.418 562.348 150.62 558.551 145.936 558.551C141.251 558.551 137.453 562.348 137.453 567.033C137.453 571.718 141.251 575.516 145.936 575.516ZM235.012 599.875C235.012 604.56 231.214 608.357 226.529 608.357C221.845 608.357 218.047 604.56 218.047 599.875C218.047 595.19 221.845 591.393 226.529 591.393C231.214 591.393 235.012 595.19 235.012 599.875ZM281.684 611.11C281.684 615.795 277.886 619.593 273.201 619.593C268.516 619.593 264.719 615.795 264.719 611.11C264.719 606.426 268.516 602.628 273.201 602.628C277.886 602.628 281.684 606.426 281.684 611.11ZM189.365 658.27C194.05 658.27 197.848 654.472 197.848 649.787C197.848 645.102 194.05 641.305 189.365 641.305C184.681 641.305 180.883 645.102 180.883 649.787C180.883 654.472 184.681 658.27 189.365 658.27ZM136.918 619.105C136.918 623.79 133.12 627.588 128.436 627.588C123.751 627.588 119.953 623.79 119.953 619.105C119.953 614.421 123.751 610.623 128.436 610.623C133.12 610.623 136.918 614.421 136.918 619.105ZM147.918 619.105C147.918 629.865 139.195 638.588 128.436 638.588C117.676 638.588 108.953 629.865 108.953 619.105C108.953 608.346 117.676 599.623 128.436 599.623C139.195 599.623 147.918 608.346 147.918 619.105ZM93.7031 580.091C93.7031 585.782 89.0896 590.396 83.3984 590.396C77.7073 590.396 73.0938 585.782 73.0938 580.091C73.0938 574.4 77.7073 569.786 83.3984 569.786C89.0896 569.786 93.7031 574.4 93.7031 580.091Z" fill="#0B0920"/>
<path fill-rule="evenodd" clip-rule="evenodd" d="M89.4375 493.933V535.465C89.4375 538.502 91.8999 540.965 94.9375 540.965C97.9751 540.965 100.438 538.502 100.438 535.465V497.416C96.6898 496.416 93.0181 495.257 89.4375 493.933ZM113.31 500.193V531.821L90.6523 559.983L90.8124 560.112C88.5035 559.254 86.0057 558.786 83.3984 558.786C71.6322 558.786 62.0938 568.325 62.0938 580.091C62.0938 591.857 71.6322 601.396 83.3984 601.396C95.1647 601.396 104.703 591.857 104.703 580.091C104.703 574.845 102.807 570.043 99.6637 566.33L124.31 535.697V501.627C120.6 501.276 116.93 500.799 113.31 500.193ZM137.863 502.365V549.297C131.132 552.365 126.453 559.153 126.453 567.033C126.453 577.793 135.176 586.516 145.936 586.516C156.695 586.516 165.418 577.793 165.418 567.033C165.418 557.268 158.234 549.182 148.863 547.769V502.212C145.181 502.37 141.51 502.422 137.863 502.365ZM162.422 501.17V545.49L173.422 558.181V499.996H171.342C168.373 500.45 165.398 500.842 162.422 501.17ZM187.317 496.952V630.411C177.52 631.435 169.883 639.719 169.883 649.787C169.883 660.547 178.605 669.27 189.365 669.27C200.125 669.27 208.848 660.547 208.848 649.787C208.848 642.255 204.573 635.721 198.317 632.479V495.562H193.064C191.156 496.05 189.24 496.514 187.317 496.952ZM211.531 490.009V586.622H212.249C209.021 590.099 207.047 594.756 207.047 599.875C207.047 610.635 215.769 619.357 226.529 619.357C237.289 619.357 246.012 610.635 246.012 599.875C246.012 589.115 237.289 580.393 226.529 580.393C225.159 580.393 223.822 580.534 222.531 580.803V487.377H218.713C216.345 488.291 213.95 489.168 211.531 490.009ZM235.062 480.284V573.662C235.062 576.7 237.525 579.162 240.562 579.162C243.6 579.162 246.062 576.7 246.062 573.662V475.44H244.411C241.376 477.118 238.257 478.734 235.062 480.284ZM260.641 465.289V596.217C256.407 599.791 253.719 605.137 253.719 611.11C253.719 621.87 262.441 630.593 273.201 630.593C283.961 630.593 292.684 621.87 292.684 611.11C292.684 600.351 283.961 591.628 273.201 591.628C272.676 591.628 272.155 591.649 271.641 591.69V459.411H268.384C265.917 461.421 263.332 463.382 260.641 465.289ZM145.936 575.516C150.62 575.516 154.418 571.718 154.418 567.033C154.418 562.348 150.62 558.551 145.936 558.551C141.251 558.551 137.453 562.348 137.453 567.033C137.453 571.718 141.251 575.516 145.936 575.516ZM235.012 599.875C235.012 604.56 231.214 608.357 226.529 608.357C221.845 608.357 218.047 604.56 218.047 599.875C218.047 595.19 221.845 591.393 226.529 591.393C231.214 591.393 235.012 595.19 235.012 599.875ZM281.684 611.11C281.684 615.795 277.886 619.593 273.201 619.593C268.516 619.593 264.719 615.795 264.719 611.11C264.719 606.426 268.516 602.628 273.201 602.628C277.886 602.628 281.684 606.426 281.684 611.11ZM189.365 658.27C194.05 658.27 197.848 654.472 197.848 649.787C197.848 645.102 194.05 641.305 189.365 641.305C184.681 641.305 180.883 645.102 180.883 649.787C180.883 654.472 184.681 658.27 189.365 658.27ZM136.918 619.105C136.918 623.79 133.12 627.588 128.436 627.588C123.751 627.588 119.953 623.79 119.953 619.105C119.953 614.421 123.751 610.623 128.436 610.623C133.12 610.623 136.918 614.421 136.918 619.105ZM147.918 619.105C147.918 629.865 139.195 638.588 128.436 638.588C117.676 638.588 108.953 629.865 108.953 619.105C108.953 608.346 117.676 599.623 128.436 599.623C139.195 599.623 147.918 608.346 147.918 619.105ZM93.7031 580.091C93.7031 585.782 89.0896 590.396 83.3984 590.396C77.7073 590.396 73.0938 585.782 73.0938 580.091C73.0938 574.4 77.7073 569.786 83.3984 569.786C89.0896 569.786 93.7031 574.4 93.7031 580.091Z" fill="url(#paint1_linear_13555_49315)"/>
<path fill-rule="evenodd" clip-rule="evenodd" d="M285.883 444.495V543.256H285.931C285.941 545.607 286.029 547.955 286.194 550.295C287.002 561.747 289.652 573.011 294.058 583.648C299.425 596.604 307.291 608.376 317.207 618.293C327.124 628.209 338.896 636.075 351.852 641.441C364.808 646.808 378.695 649.57 392.718 649.57C406.742 649.57 420.628 646.808 433.585 641.441C446.541 636.075 458.313 628.209 468.229 618.293C478.145 608.376 486.011 596.604 491.378 583.648C495.784 573.011 498.435 561.747 499.242 550.295C499.418 547.798 499.507 545.292 499.507 542.782H499.484V501.231C495.517 502.272 491.395 503.252 487.098 504.08V542.782H486.786C486.786 555.135 484.353 567.367 479.626 578.78C474.898 590.193 467.969 600.563 459.234 609.298C450.499 618.033 440.129 624.962 428.716 629.689C417.304 634.416 405.071 636.85 392.718 636.85C380.365 636.85 368.133 634.416 356.72 629.689C345.307 624.962 334.937 618.033 326.202 609.298C317.467 600.563 310.538 590.193 305.811 578.78C301.084 567.367 298.65 555.135 298.65 542.782H298.27V433.805C294.916 436.718 290.839 440.239 285.883 444.495ZM309.551 423.886V542.782H309.473C309.473 545.294 309.586 547.801 309.812 550.295C310.57 558.651 312.587 566.86 315.809 574.639C319.993 584.739 326.125 593.916 333.855 601.646C341.585 609.376 350.762 615.508 360.862 619.691C370.962 623.875 381.787 626.028 392.719 626.028C403.651 626.028 414.476 623.875 424.576 619.691C434.676 615.508 443.853 609.376 451.583 601.646C459.314 593.916 465.445 584.739 469.629 574.639C472.851 566.86 474.869 558.651 475.626 550.295C475.838 547.958 475.951 545.61 475.964 543.256H475.973V505.78C471.815 506.242 467.501 506.517 463.016 506.538V542.782H462.991C462.991 552.01 461.174 561.148 457.642 569.674C454.111 578.199 448.934 585.946 442.409 592.472C435.884 598.997 428.137 604.173 419.611 607.705C411.085 611.236 401.947 613.054 392.719 613.054C383.491 613.054 374.353 611.236 365.827 607.705C357.301 604.173 349.555 598.997 343.029 592.472C336.504 585.946 331.328 578.199 327.796 569.674C324.325 561.294 322.51 552.323 322.449 543.256H322.508V431.594C318.252 426.673 315.387 422.664 313.803 419.91C313.803 419.91 313.604 420.247 309.551 423.886ZM332.301 441.958V543.256H332.408C332.427 545.614 332.583 547.964 332.876 550.295C333.546 555.633 334.929 560.87 336.997 565.862C340.028 573.179 344.471 579.828 350.071 585.429C355.672 591.029 362.32 595.472 369.638 598.503C376.955 601.534 384.798 603.094 392.718 603.094C400.639 603.094 408.481 601.534 415.799 598.503C423.116 595.472 429.765 591.029 435.365 585.429C440.966 579.828 445.408 573.179 448.439 565.862C450.507 560.87 451.89 555.633 452.561 550.295C452.853 547.964 453.01 545.614 453.028 543.256H453.051V506.165C449.131 505.852 445.087 505.333 440.91 504.569V543.256H440.969C440.908 549.431 439.663 555.539 437.298 561.247C434.873 567.102 431.319 572.421 426.838 576.902C422.358 581.382 417.038 584.937 411.184 587.362C405.33 589.787 399.055 591.035 392.718 591.035C386.382 591.035 380.107 589.787 374.253 587.362C368.398 584.937 363.079 581.382 358.598 576.902C354.118 572.421 350.563 567.102 348.138 561.247C345.713 555.393 344.465 549.118 344.465 542.782H344.441V453.008C339.882 449.134 335.842 445.427 332.301 441.958ZM354.281 460.978V542.981H354.395C354.408 545.443 354.658 547.892 355.138 550.295C355.627 552.738 356.354 555.134 357.312 557.448C359.238 562.098 362.061 566.323 365.62 569.881C369.178 573.44 373.403 576.263 378.053 578.189C382.703 580.115 387.686 581.106 392.719 581.106C397.752 581.106 402.736 580.115 407.385 578.189C412.035 576.263 416.26 573.44 419.819 569.881C423.378 566.323 426.201 562.098 428.127 557.448C429.085 555.134 429.812 552.738 430.3 550.295C430.763 547.981 431.012 545.625 431.041 543.256H431.156V502.388C427.994 501.553 424.759 500.576 421.449 499.442V543.256H421.543C421.483 546.88 420.741 550.462 419.352 553.814C417.904 557.311 415.78 560.489 413.103 563.166C410.426 565.843 407.249 567.966 403.751 569.415C400.254 570.864 396.505 571.609 392.719 571.609C388.934 571.609 385.185 570.864 381.687 569.415C378.19 567.966 375.012 565.843 372.335 563.166C369.658 560.489 367.535 557.311 366.086 553.814C364.663 550.378 363.918 546.699 363.892 542.981H363.988V468.172C360.57 465.742 357.336 463.339 354.281 460.978ZM380.02 478.873V525.909C375.879 528.98 373.195 533.903 373.195 539.454C373.195 548.761 380.74 556.306 390.047 556.306C399.354 556.306 406.898 548.761 406.898 539.454C406.898 530.147 399.354 522.603 390.047 522.603C389.94 522.603 389.833 522.603 389.727 522.605V484.742C389.136 484.4 388.544 484.053 387.949 483.702C385.226 482.091 382.583 480.48 380.02 478.873ZM402.539 491.579V517.246L412.246 524.743V495.958C409.077 494.645 405.843 493.189 402.539 491.579ZM399.898 539.454C399.898 544.895 395.488 549.306 390.047 549.306C384.606 549.306 380.195 544.895 380.195 539.454C380.195 534.013 384.606 529.603 390.047 529.603C395.488 529.603 399.898 534.013 399.898 539.454Z" fill="#0B0920"/>
<path fill-rule="evenodd" clip-rule="evenodd" d="M285.883 444.495V543.256H285.931C285.941 545.607 286.029 547.955 286.194 550.295C287.002 561.747 289.652 573.011 294.058 583.648C299.425 596.604 307.291 608.376 317.207 618.293C327.124 628.209 338.896 636.075 351.852 641.441C364.808 646.808 378.695 649.57 392.718 649.57C406.742 649.57 420.628 646.808 433.585 641.441C446.541 636.075 458.313 628.209 468.229 618.293C478.145 608.376 486.011 596.604 491.378 583.648C495.784 573.011 498.435 561.747 499.242 550.295C499.418 547.798 499.507 545.292 499.507 542.782H499.484V501.231C495.517 502.272 491.395 503.252 487.098 504.08V542.782H486.786C486.786 555.135 484.353 567.367 479.626 578.78C474.898 590.193 467.969 600.563 459.234 609.298C450.499 618.033 440.129 624.962 428.716 629.689C417.304 634.416 405.071 636.85 392.718 636.85C380.365 636.85 368.133 634.416 356.72 629.689C345.307 624.962 334.937 618.033 326.202 609.298C317.467 600.563 310.538 590.193 305.811 578.78C301.084 567.367 298.65 555.135 298.65 542.782H298.27V433.805C294.916 436.718 290.839 440.239 285.883 444.495ZM309.551 423.886V542.782H309.473C309.473 545.294 309.586 547.801 309.812 550.295C310.57 558.651 312.587 566.86 315.809 574.639C319.993 584.739 326.125 593.916 333.855 601.646C341.585 609.376 350.762 615.508 360.862 619.691C370.962 623.875 381.787 626.028 392.719 626.028C403.651 626.028 414.476 623.875 424.576 619.691C434.676 615.508 443.853 609.376 451.583 601.646C459.314 593.916 465.445 584.739 469.629 574.639C472.851 566.86 474.869 558.651 475.626 550.295C475.838 547.958 475.951 545.61 475.964 543.256H475.973V505.78C471.815 506.242 467.501 506.517 463.016 506.538V542.782H462.991C462.991 552.01 461.174 561.148 457.642 569.674C454.111 578.199 448.934 585.946 442.409 592.472C435.884 598.997 428.137 604.173 419.611 607.705C411.085 611.236 401.947 613.054 392.719 613.054C383.491 613.054 374.353 611.236 365.827 607.705C357.301 604.173 349.555 598.997 343.029 592.472C336.504 585.946 331.328 578.199 327.796 569.674C324.325 561.294 322.51 552.323 322.449 543.256H322.508V431.594C318.252 426.673 315.387 422.664 313.803 419.91C313.803 419.91 313.604 420.247 309.551 423.886ZM332.301 441.958V543.256H332.408C332.427 545.614 332.583 547.964 332.876 550.295C333.546 555.633 334.929 560.87 336.997 565.862C340.028 573.179 344.471 579.828 350.071 585.429C355.672 591.029 362.32 595.472 369.638 598.503C376.955 601.534 384.798 603.094 392.718 603.094C400.639 603.094 408.481 601.534 415.799 598.503C423.116 595.472 429.765 591.029 435.365 585.429C440.966 579.828 445.408 573.179 448.439 565.862C450.507 560.87 451.89 555.633 452.561 550.295C452.853 547.964 453.01 545.614 453.028 543.256H453.051V506.165C449.131 505.852 445.087 505.333 440.91 504.569V543.256H440.969C440.908 549.431 439.663 555.539 437.298 561.247C434.873 567.102 431.319 572.421 426.838 576.902C422.358 581.382 417.038 584.937 411.184 587.362C405.33 589.787 399.055 591.035 392.718 591.035C386.382 591.035 380.107 589.787 374.253 587.362C368.398 584.937 363.079 581.382 358.598 576.902C354.118 572.421 350.563 567.102 348.138 561.247C345.713 555.393 344.465 549.118 344.465 542.782H344.441V453.008C339.882 449.134 335.842 445.427 332.301 441.958ZM354.281 460.978V542.981H354.395C354.408 545.443 354.658 547.892 355.138 550.295C355.627 552.738 356.354 555.134 357.312 557.448C359.238 562.098 362.061 566.323 365.62 569.881C369.178 573.44 373.403 576.263 378.053 578.189C382.703 580.115 387.686 581.106 392.719 581.106C397.752 581.106 402.736 580.115 407.385 578.189C412.035 576.263 416.26 573.44 419.819 569.881C423.378 566.323 426.201 562.098 428.127 557.448C429.085 555.134 429.812 552.738 430.3 550.295C430.763 547.981 431.012 545.625 431.041 543.256H431.156V502.388C427.994 501.553 424.759 500.576 421.449 499.442V543.256H421.543C421.483 546.88 420.741 550.462 419.352 553.814C417.904 557.311 415.78 560.489 413.103 563.166C410.426 565.843 407.249 567.966 403.751 569.415C400.254 570.864 396.505 571.609 392.719 571.609C388.934 571.609 385.185 570.864 381.687 569.415C378.19 567.966 375.012 565.843 372.335 563.166C369.658 560.489 367.535 557.311 366.086 553.814C364.663 550.378 363.918 546.699 363.892 542.981H363.988V468.172C360.57 465.742 357.336 463.339 354.281 460.978ZM380.02 478.873V525.909C375.879 528.98 373.195 533.903 373.195 539.454C373.195 548.761 380.74 556.306 390.047 556.306C399.354 556.306 406.898 548.761 406.898 539.454C406.898 530.147 399.354 522.603 390.047 522.603C389.94 522.603 389.833 522.603 389.727 522.605V484.742C389.136 484.4 388.544 484.053 387.949 483.702C385.226 482.091 382.583 480.48 380.02 478.873ZM402.539 491.579V517.246L412.246 524.743V495.958C409.077 494.645 405.843 493.189 402.539 491.579ZM399.898 539.454C399.898 544.895 395.488 549.306 390.047 549.306C384.606 549.306 380.195 544.895 380.195 539.454C380.195 534.013 384.606 529.603 390.047 529.603C395.488 529.603 399.898 534.013 399.898 539.454Z" fill="url(#paint2_linear_13555_49315)"/>
<path fill-rule="evenodd" clip-rule="evenodd" d="M156.77 479.772C137.619 479.773 118.655 476 100.962 468.672C83.2689 461.343 67.1925 450.601 53.6507 437.059C40.1089 423.518 29.367 407.441 22.0383 389.748C14.7095 372.055 10.9375 353.091 10.9375 333.94C10.9375 314.789 14.7095 295.826 22.0383 278.133C29.367 260.44 40.1089 244.363 53.6507 230.822C67.1924 217.28 83.2689 206.538 100.962 199.209C118.655 191.88 137.619 188.108 156.77 188.108V187.818C188.894 187.956 217.555 201.432 244.425 222.16C271.49 243.039 296.356 270.974 320.794 299.311C323.205 302.107 325.613 304.907 328.018 307.705C349.848 333.098 371.493 358.276 393.862 377.668C418.326 398.876 444.363 413.808 473.344 414.263V414.429C477.031 414.429 480.707 414.175 484.344 413.674C491.132 412.737 497.787 410.936 504.145 408.302C513.911 404.257 522.784 398.328 530.258 390.854C537.732 383.38 543.66 374.507 547.705 364.742C551.75 354.977 553.832 344.51 553.832 333.94C553.832 323.371 551.75 312.904 547.705 303.139C543.66 293.374 537.732 284.501 530.258 277.027C522.784 269.553 513.911 263.624 504.145 259.579C497.787 256.945 491.132 255.144 484.344 254.207C480.707 253.706 477.031 253.452 473.344 253.452V253.945C420.145 254.146 383.089 294.999 366.01 314.492L373.532 321.082C390.902 301.256 425.358 263.944 473.738 263.944V263.797C482.816 263.848 491.798 265.661 500.187 269.135C508.697 272.66 516.43 277.827 522.943 284.341C529.457 290.854 534.624 298.587 538.149 307.097C541.674 315.608 543.488 324.729 543.488 333.94C543.488 343.152 541.674 352.273 538.149 360.784C534.624 369.294 529.457 377.027 522.943 383.54C516.43 390.054 508.697 395.22 500.187 398.746C491.677 402.271 482.555 404.085 473.344 404.085V404.261C447.88 403.807 424.123 390.666 400.413 370.112C378.635 351.233 357.49 326.641 335.553 301.128L335.53 301.102C333.152 298.337 330.765 295.561 328.367 292.78C303.981 264.503 278.508 235.824 250.533 214.242C222.632 192.718 191.867 177.956 156.77 177.818V177.585C153.094 177.585 149.425 177.715 145.77 177.972C129.002 179.155 112.509 183.036 96.9349 189.487C77.965 197.344 60.7285 208.861 46.2095 223.38C31.6906 237.899 20.1735 255.136 12.3159 274.106C4.45831 293.076 0.414062 313.408 0.414062 333.94C0.414062 354.473 4.45832 374.805 12.3159 393.775C20.1735 412.745 31.6906 429.982 46.2095 444.5C60.7285 459.019 77.965 470.536 96.9349 478.394C112.509 484.845 129.002 488.726 145.77 489.908C149.425 490.166 153.094 490.296 156.77 490.296V489.985C189.184 489.878 220.521 473.423 245.56 455.044C270.792 436.523 290.303 415.546 299.04 405.573L291.519 398.983C283.01 408.694 264.045 429.071 239.643 446.982C215.217 464.911 186.009 479.877 156.77 479.985V479.772ZM156.77 238.751C144.269 238.751 131.891 241.213 120.342 245.997C108.793 250.78 98.2994 257.792 89.4602 266.631C80.621 275.47 73.6094 285.964 68.8257 297.513C64.042 309.062 61.5798 321.44 61.5798 333.94C61.5798 346.441 64.042 358.819 68.8257 370.368C73.6094 381.917 80.621 392.411 89.4602 401.25C98.2994 410.089 108.793 417.101 120.342 421.884C131.891 426.668 144.269 429.13 156.77 429.13V429.378C179.391 429.274 200.354 418.084 218.116 403.984C234.543 390.943 247.718 375.839 256.488 365.785L256.509 365.761C257.237 364.926 257.935 364.125 258.602 363.364L266.124 369.954C265.451 370.722 264.74 371.537 263.993 372.394L263.993 372.394C255.251 382.422 241.514 398.178 224.333 411.816C205.799 426.529 182.655 439.274 156.77 439.378V440.526C153.089 440.526 149.417 440.336 145.77 439.957C135.547 438.897 125.512 436.361 115.981 432.413C103.049 427.057 91.2993 419.205 81.4019 409.308C71.5045 399.411 63.6534 387.661 58.297 374.729C52.9405 361.798 50.1836 347.938 50.1836 333.94C50.1836 319.943 52.9405 306.083 58.297 293.152C63.6534 280.22 71.5045 268.47 81.4019 258.573C91.2993 248.675 103.049 240.824 115.981 235.468C125.512 231.52 135.547 228.984 145.77 227.924C149.417 227.545 153.089 227.354 156.77 227.354V227.669C182.547 228.031 207.535 243.276 231.904 264.465C253.209 282.989 274.85 306.803 296.885 331.052L296.905 331.073L296.921 331.091L296.934 331.105C300.504 335.033 304.083 338.972 307.673 342.902C333.599 371.279 360.171 399.283 388.063 420.209C415.948 441.131 444.615 454.561 474.72 454.561V455.232C490.181 455.056 505.47 451.927 519.763 446.006C534.48 439.911 547.852 430.976 559.115 419.712C570.379 408.448 579.314 395.076 585.41 380.36C591.506 365.643 594.643 349.87 594.643 333.94C594.643 318.011 591.506 302.238 585.41 287.521C579.314 272.804 570.379 259.433 559.115 248.169C547.852 236.905 534.48 227.97 519.763 221.874C505.168 215.829 489.533 212.693 473.738 212.642V212.698C442.087 212.698 413.335 225.833 390.16 241.672C367.013 257.492 349.796 275.762 341.309 285.448L333.788 278.858C342.546 268.861 360.395 249.903 384.517 233.416C408.519 217.011 439.096 202.807 473.344 202.698V202.409C477.021 202.409 480.691 202.563 484.344 202.87C497.848 204.003 511.118 207.219 523.679 212.421C539.637 219.031 554.137 228.72 566.35 240.934C578.564 253.148 588.253 267.647 594.863 283.606C601.473 299.564 604.875 316.668 604.875 333.94C604.875 351.213 601.473 368.317 594.863 384.275C588.253 400.233 578.564 414.733 566.35 426.947C554.137 439.161 539.637 448.849 523.679 455.459C511.118 460.662 497.848 463.878 484.344 465.011C481.147 465.279 477.937 465.431 474.72 465.464V465.561C441.255 465.561 410.28 450.63 381.461 429.008C352.647 407.39 325.451 378.669 299.552 350.322C295.901 346.325 292.278 342.339 288.68 338.38C266.599 314.086 245.46 290.828 224.687 272.766C200.768 251.968 178.389 239.035 156.77 238.67V238.751ZM156.77 404.085C147.558 404.085 138.437 402.271 129.926 398.746C121.416 395.22 113.683 390.054 107.17 383.54C100.656 377.027 95.4895 369.294 91.9644 360.784C88.4393 352.273 86.625 343.152 86.625 333.94C86.625 324.729 88.4393 315.608 91.9644 307.097C95.4895 298.587 100.656 290.854 107.17 284.341C113.683 277.827 121.416 272.66 129.926 269.135C138.437 265.61 147.558 263.796 156.77 263.796V263.795C176.625 264.189 197.137 277.058 219.501 297.897C236.658 313.885 254.232 333.889 272.861 355.095C278.775 361.828 284.796 368.681 290.944 375.566C316.299 403.96 343.651 432.681 373.827 454.297C404.045 475.943 437.398 490.685 474.72 490.685V490.29C477.935 490.262 481.144 490.134 484.344 489.908C501.112 488.726 517.604 484.845 533.178 478.394C552.148 470.536 569.385 459.019 583.904 444.5C598.423 429.982 609.94 412.745 617.797 393.775C625.655 374.805 629.699 354.473 629.699 333.94C629.699 313.408 625.655 293.076 617.797 274.106C609.94 255.136 598.423 237.899 583.904 223.38C569.385 208.861 552.148 197.344 533.178 189.487C517.604 183.036 501.112 179.155 484.344 177.972C480.688 177.715 477.019 177.585 473.344 177.585V178.144C389.79 178.337 336.089 239.723 318.023 260.374C317.707 260.735 317.402 261.084 317.108 261.42L324.629 268.01L325.323 267.217C343.327 246.652 394.547 188.144 473.738 188.144V188.109C492.755 188.16 511.58 191.931 529.151 199.209C546.844 206.538 562.921 217.28 576.463 230.822C590.004 244.363 600.746 260.44 608.075 278.133C615.404 295.826 619.176 314.789 619.176 333.94C619.176 353.091 615.404 372.055 608.075 389.748C600.746 407.441 590.004 423.518 576.463 437.059C562.921 450.601 546.844 461.343 529.151 468.672C511.458 476 492.495 479.773 473.344 479.772V480.678C439.335 480.322 408.436 466.788 379.651 446.168C350.435 425.24 323.701 397.236 298.403 368.906C292.425 362.212 286.519 355.487 280.677 348.837L280.66 348.818L280.647 348.803L280.643 348.799L280.636 348.79C261.922 327.486 243.876 306.942 226.318 290.581C203.673 269.48 180.689 254.185 156.77 253.794V253.452C153.082 253.452 149.407 253.706 145.77 254.207C138.982 255.144 132.326 256.945 125.968 259.579C116.203 263.624 107.33 269.553 99.8557 277.027C92.3817 284.501 86.453 293.374 82.4081 303.139C78.3631 312.904 76.2812 323.371 76.2812 333.94C76.2812 344.51 78.3631 354.977 82.4081 364.742C86.453 374.507 92.3817 383.38 99.8557 390.854C107.33 398.328 116.203 404.257 125.968 408.302C132.326 410.936 138.982 412.737 145.77 413.674C149.407 414.175 153.082 414.429 156.77 414.429V414.185C177.818 414.079 196.778 403.465 212.311 390.933C226.781 379.259 238.834 365.452 247.324 355.727C248.017 354.933 248.686 354.167 249.331 353.431L241.81 346.841C241.172 347.568 240.516 348.32 239.841 349.093C231.303 358.868 219.789 372.051 206.032 383.151C191.234 395.089 174.482 404.079 156.77 404.185V404.085ZM156.77 366.565C174.788 366.565 189.395 351.959 189.395 333.94C189.395 315.922 174.788 301.315 156.77 301.315C138.751 301.315 124.145 315.922 124.145 333.94C124.145 351.959 138.751 366.565 156.77 366.565ZM156.77 377.565C180.863 377.565 200.395 358.034 200.395 333.94C200.395 309.847 180.863 290.315 156.77 290.315C132.676 290.315 113.145 309.847 113.145 333.94C113.145 358.034 132.676 377.565 156.77 377.565ZM509.771 245.997C498.222 241.213 485.844 238.751 473.344 238.751C414.283 238.933 378.594 279.962 360.355 300.931C359.531 301.878 358.742 302.785 357.989 303.645L350.467 297.055C351.26 296.15 352.101 295.181 352.991 294.156L352.995 294.151C371.168 273.211 409.597 228.933 473.344 228.75V227.354C477.025 227.354 480.696 227.545 484.344 227.924C494.566 228.984 504.602 231.52 514.132 235.468C527.064 240.824 538.814 248.675 548.711 258.573C558.609 268.47 566.46 280.22 571.816 293.152C577.173 306.083 579.93 319.943 579.93 333.94C579.93 347.938 577.173 361.798 571.816 374.729C566.46 387.661 558.609 399.411 548.711 409.308C538.814 419.205 527.064 427.057 514.132 432.413C504.602 436.361 494.566 438.897 484.344 439.957C480.696 440.336 477.025 440.526 473.344 440.526V439.478C443.856 439.027 415.902 424.153 389.258 402.947C362.167 381.386 335.753 352.716 309.812 324.417L308.282 322.749C282.735 294.877 257.644 267.503 232.357 246.92C206.836 226.147 181.849 212.917 156.77 212.595V212.641C140.84 212.641 125.067 215.779 110.35 221.874C95.6336 227.97 82.2616 236.905 70.998 248.169C59.7343 259.433 50.7994 272.804 44.7036 287.521C38.6077 302.238 35.4702 318.011 35.4702 333.94C35.4702 349.87 38.6077 365.643 44.7036 380.36C50.7994 395.076 59.7343 408.448 70.998 419.712C82.2617 430.976 95.6336 439.911 110.35 446.006C125.067 452.102 140.84 455.24 156.77 455.24V455.432C179.399 455.312 204.447 442.301 226.496 426.168C248.469 410.091 266.604 391.556 275.05 381.916L282.571 388.506C273.772 398.549 255.106 417.626 232.401 434.239C209.965 450.654 182.719 465.314 156.77 465.432V465.472C153.092 465.472 149.422 465.317 145.77 465.011C132.266 463.878 118.995 460.662 106.435 455.459C90.4766 448.849 75.9767 439.161 63.7629 426.947C51.5491 414.733 41.8606 400.233 35.2505 384.275C28.6404 368.317 25.2383 351.213 25.2383 333.94C25.2383 316.668 28.6404 299.564 35.2505 283.606C41.8606 267.647 51.5491 253.148 63.7629 240.934C75.9767 228.72 90.4766 219.031 106.435 212.421C118.995 207.219 132.266 204.003 145.77 202.87C149.422 202.563 153.092 202.409 156.77 202.409V202.594C185.295 202.916 212.527 217.885 238.669 239.164C264.532 260.215 290.05 288.056 315.382 315.695L317.183 317.66C343.241 346.086 369.121 374.14 395.485 395.123C421.425 415.769 447.179 429.026 473.344 429.476V429.13C485.844 429.13 498.222 426.668 509.771 421.884C521.32 417.101 531.814 410.089 540.653 401.25C549.492 392.411 556.504 381.917 561.288 370.368C566.071 358.819 568.533 346.441 568.533 333.94C568.533 321.44 566.071 309.062 561.288 297.513C556.504 285.964 549.492 275.47 540.653 266.631C531.814 257.792 521.32 250.78 509.771 245.997ZM465.912 279.882L521.887 365.929H475.526L448.43 324.459L430.704 354.83H462.661V364.83H413.289L447.95 305.442L480.938 355.929H503.452L466.005 298.363L459.919 307.927L451.482 302.558L465.912 279.882ZM162.621 333.94C162.621 337.172 160.001 339.792 156.77 339.792C153.538 339.792 150.918 337.172 150.918 333.94C150.918 330.709 153.538 328.089 156.77 328.089C160.001 328.089 162.621 330.709 162.621 333.94ZM173.621 333.94C173.621 343.247 166.076 350.792 156.77 350.792C147.463 350.792 139.918 343.247 139.918 333.94C139.918 324.634 147.463 317.089 156.77 317.089C166.076 317.089 173.621 324.634 173.621 333.94Z" fill="#0B0920"/>
<path fill-rule="evenodd" clip-rule="evenodd" d="M156.77 479.772C137.619 479.773 118.655 476 100.962 468.672C83.2689 461.343 67.1925 450.601 53.6507 437.059C40.1089 423.518 29.367 407.441 22.0383 389.748C14.7095 372.055 10.9375 353.091 10.9375 333.94C10.9375 314.789 14.7095 295.826 22.0383 278.133C29.367 260.44 40.1089 244.363 53.6507 230.822C67.1924 217.28 83.2689 206.538 100.962 199.209C118.655 191.88 137.619 188.108 156.77 188.108V187.818C188.894 187.956 217.555 201.432 244.425 222.16C271.49 243.039 296.356 270.974 320.794 299.311C323.205 302.107 325.613 304.907 328.018 307.705C349.848 333.098 371.493 358.276 393.862 377.668C418.326 398.876 444.363 413.808 473.344 414.263V414.429C477.031 414.429 480.707 414.175 484.344 413.674C491.132 412.737 497.787 410.936 504.145 408.302C513.911 404.257 522.784 398.328 530.258 390.854C537.732 383.38 543.66 374.507 547.705 364.742C551.75 354.977 553.832 344.51 553.832 333.94C553.832 323.371 551.75 312.904 547.705 303.139C543.66 293.374 537.732 284.501 530.258 277.027C522.784 269.553 513.911 263.624 504.145 259.579C497.787 256.945 491.132 255.144 484.344 254.207C480.707 253.706 477.031 253.452 473.344 253.452V253.945C420.145 254.146 383.089 294.999 366.01 314.492L373.532 321.082C390.902 301.256 425.358 263.944 473.738 263.944V263.797C482.816 263.848 491.798 265.661 500.187 269.135C508.697 272.66 516.43 277.827 522.943 284.341C529.457 290.854 534.624 298.587 538.149 307.097C541.674 315.608 543.488 324.729 543.488 333.94C543.488 343.152 541.674 352.273 538.149 360.784C534.624 369.294 529.457 377.027 522.943 383.54C516.43 390.054 508.697 395.22 500.187 398.746C491.677 402.271 482.555 404.085 473.344 404.085V404.261C447.88 403.807 424.123 390.666 400.413 370.112C378.635 351.233 357.49 326.641 335.553 301.128L335.53 301.102C333.152 298.337 330.765 295.561 328.367 292.78C303.981 264.503 278.508 235.824 250.533 214.242C222.632 192.718 191.867 177.956 156.77 177.818V177.585C153.094 177.585 149.425 177.715 145.77 177.972C129.002 179.155 112.509 183.036 96.9349 189.487C77.965 197.344 60.7285 208.861 46.2095 223.38C31.6906 237.899 20.1735 255.136 12.3159 274.106C4.45831 293.076 0.414062 313.408 0.414062 333.94C0.414062 354.473 4.45832 374.805 12.3159 393.775C20.1735 412.745 31.6906 429.982 46.2095 444.5C60.7285 459.019 77.965 470.536 96.9349 478.394C112.509 484.845 129.002 488.726 145.77 489.908C149.425 490.166 153.094 490.296 156.77 490.296V489.985C189.184 489.878 220.521 473.423 245.56 455.044C270.792 436.523 290.303 415.546 299.04 405.573L291.519 398.983C283.01 408.694 264.045 429.071 239.643 446.982C215.217 464.911 186.009 479.877 156.77 479.985V479.772ZM156.77 238.751C144.269 238.751 131.891 241.213 120.342 245.997C108.793 250.78 98.2994 257.792 89.4602 266.631C80.621 275.47 73.6094 285.964 68.8257 297.513C64.042 309.062 61.5798 321.44 61.5798 333.94C61.5798 346.441 64.042 358.819 68.8257 370.368C73.6094 381.917 80.621 392.411 89.4602 401.25C98.2994 410.089 108.793 417.101 120.342 421.884C131.891 426.668 144.269 429.13 156.77 429.13V429.378C179.391 429.274 200.354 418.084 218.116 403.984C234.543 390.943 247.718 375.839 256.488 365.785L256.509 365.761C257.237 364.926 257.935 364.125 258.602 363.364L266.124 369.954C265.451 370.722 264.74 371.537 263.993 372.394L263.993 372.394C255.251 382.422 241.514 398.178 224.333 411.816C205.799 426.529 182.655 439.274 156.77 439.378V440.526C153.089 440.526 149.417 440.336 145.77 439.957C135.547 438.897 125.512 436.361 115.981 432.413C103.049 427.057 91.2993 419.205 81.4019 409.308C71.5045 399.411 63.6534 387.661 58.297 374.729C52.9405 361.798 50.1836 347.938 50.1836 333.94C50.1836 319.943 52.9405 306.083 58.297 293.152C63.6534 280.22 71.5045 268.47 81.4019 258.573C91.2993 248.675 103.049 240.824 115.981 235.468C125.512 231.52 135.547 228.984 145.77 227.924C149.417 227.545 153.089 227.354 156.77 227.354V227.669C182.547 228.031 207.535 243.276 231.904 264.465C253.209 282.989 274.85 306.803 296.885 331.052L296.905 331.073L296.921 331.091L296.934 331.105C300.504 335.033 304.083 338.972 307.673 342.902C333.599 371.279 360.171 399.283 388.063 420.209C415.948 441.131 444.615 454.561 474.72 454.561V455.232C490.181 455.056 505.47 451.927 519.763 446.006C534.48 439.911 547.852 430.976 559.115 419.712C570.379 408.448 579.314 395.076 585.41 380.36C591.506 365.643 594.643 349.87 594.643 333.94C594.643 318.011 591.506 302.238 585.41 287.521C579.314 272.804 570.379 259.433 559.115 248.169C547.852 236.905 534.48 227.97 519.763 221.874C505.168 215.829 489.533 212.693 473.738 212.642V212.698C442.087 212.698 413.335 225.833 390.16 241.672C367.013 257.492 349.796 275.762 341.309 285.448L333.788 278.858C342.546 268.861 360.395 249.903 384.517 233.416C408.519 217.011 439.096 202.807 473.344 202.698V202.409C477.021 202.409 480.691 202.563 484.344 202.87C497.848 204.003 511.118 207.219 523.679 212.421C539.637 219.031 554.137 228.72 566.35 240.934C578.564 253.148 588.253 267.647 594.863 283.606C601.473 299.564 604.875 316.668 604.875 333.94C604.875 351.213 601.473 368.317 594.863 384.275C588.253 400.233 578.564 414.733 566.35 426.947C554.137 439.161 539.637 448.849 523.679 455.459C511.118 460.662 497.848 463.878 484.344 465.011C481.147 465.279 477.937 465.431 474.72 465.464V465.561C441.255 465.561 410.28 450.63 381.461 429.008C352.647 407.39 325.451 378.669 299.552 350.322C295.901 346.325 292.278 342.339 288.68 338.38C266.599 314.086 245.46 290.828 224.687 272.766C200.768 251.968 178.389 239.035 156.77 238.67V238.751ZM156.77 404.085C147.558 404.085 138.437 402.271 129.926 398.746C121.416 395.22 113.683 390.054 107.17 383.54C100.656 377.027 95.4895 369.294 91.9644 360.784C88.4393 352.273 86.625 343.152 86.625 333.94C86.625 324.729 88.4393 315.608 91.9644 307.097C95.4895 298.587 100.656 290.854 107.17 284.341C113.683 277.827 121.416 272.66 129.926 269.135C138.437 265.61 147.558 263.796 156.77 263.796V263.795C176.625 264.189 197.137 277.058 219.501 297.897C236.658 313.885 254.232 333.889 272.861 355.095C278.775 361.828 284.796 368.681 290.944 375.566C316.299 403.96 343.651 432.681 373.827 454.297C404.045 475.943 437.398 490.685 474.72 490.685V490.29C477.935 490.262 481.144 490.134 484.344 489.908C501.112 488.726 517.604 484.845 533.178 478.394C552.148 470.536 569.385 459.019 583.904 444.5C598.423 429.982 609.94 412.745 617.797 393.775C625.655 374.805 629.699 354.473 629.699 333.94C629.699 313.408 625.655 293.076 617.797 274.106C609.94 255.136 598.423 237.899 583.904 223.38C569.385 208.861 552.148 197.344 533.178 189.487C517.604 183.036 501.112 179.155 484.344 177.972C480.688 177.715 477.019 177.585 473.344 177.585V178.144C389.79 178.337 336.089 239.723 318.023 260.374C317.707 260.735 317.402 261.084 317.108 261.42L324.629 268.01L325.323 267.217C343.327 246.652 394.547 188.144 473.738 188.144V188.109C492.755 188.16 511.58 191.931 529.151 199.209C546.844 206.538 562.921 217.28 576.463 230.822C590.004 244.363 600.746 260.44 608.075 278.133C615.404 295.826 619.176 314.789 619.176 333.94C619.176 353.091 615.404 372.055 608.075 389.748C600.746 407.441 590.004 423.518 576.463 437.059C562.921 450.601 546.844 461.343 529.151 468.672C511.458 476 492.495 479.773 473.344 479.772V480.678C439.335 480.322 408.436 466.788 379.651 446.168C350.435 425.24 323.701 397.236 298.403 368.906C292.425 362.212 286.519 355.487 280.677 348.837L280.66 348.818L280.647 348.803L280.643 348.799L280.636 348.79C261.922 327.486 243.876 306.942 226.318 290.581C203.673 269.48 180.689 254.185 156.77 253.794V253.452C153.082 253.452 149.407 253.706 145.77 254.207C138.982 255.144 132.326 256.945 125.968 259.579C116.203 263.624 107.33 269.553 99.8557 277.027C92.3817 284.501 86.453 293.374 82.4081 303.139C78.3631 312.904 76.2812 323.371 76.2812 333.94C76.2812 344.51 78.3631 354.977 82.4081 364.742C86.453 374.507 92.3817 383.38 99.8557 390.854C107.33 398.328 116.203 404.257 125.968 408.302C132.326 410.936 138.982 412.737 145.77 413.674C149.407 414.175 153.082 414.429 156.77 414.429V414.185C177.818 414.079 196.778 403.465 212.311 390.933C226.781 379.259 238.834 365.452 247.324 355.727C248.017 354.933 248.686 354.167 249.331 353.431L241.81 346.841C241.172 347.568 240.516 348.32 239.841 349.093C231.303 358.868 219.789 372.051 206.032 383.151C191.234 395.089 174.482 404.079 156.77 404.185V404.085ZM156.77 366.565C174.788 366.565 189.395 351.959 189.395 333.94C189.395 315.922 174.788 301.315 156.77 301.315C138.751 301.315 124.145 315.922 124.145 333.94C124.145 351.959 138.751 366.565 156.77 366.565ZM156.77 377.565C180.863 377.565 200.395 358.034 200.395 333.94C200.395 309.847 180.863 290.315 156.77 290.315C132.676 290.315 113.145 309.847 113.145 333.94C113.145 358.034 132.676 377.565 156.77 377.565ZM509.771 245.997C498.222 241.213 485.844 238.751 473.344 238.751C414.283 238.933 378.594 279.962 360.355 300.931C359.531 301.878 358.742 302.785 357.989 303.645L350.467 297.055C351.26 296.15 352.101 295.181 352.991 294.156L352.995 294.151C371.168 273.211 409.597 228.933 473.344 228.75V227.354C477.025 227.354 480.696 227.545 484.344 227.924C494.566 228.984 504.602 231.52 514.132 235.468C527.064 240.824 538.814 248.675 548.711 258.573C558.609 268.47 566.46 280.22 571.816 293.152C577.173 306.083 579.93 319.943 579.93 333.94C579.93 347.938 577.173 361.798 571.816 374.729C566.46 387.661 558.609 399.411 548.711 409.308C538.814 419.205 527.064 427.057 514.132 432.413C504.602 436.361 494.566 438.897 484.344 439.957C480.696 440.336 477.025 440.526 473.344 440.526V439.478C443.856 439.027 415.902 424.153 389.258 402.947C362.167 381.386 335.753 352.716 309.812 324.417L308.282 322.749C282.735 294.877 257.644 267.503 232.357 246.92C206.836 226.147 181.849 212.917 156.77 212.595V212.641C140.84 212.641 125.067 215.779 110.35 221.874C95.6336 227.97 82.2616 236.905 70.998 248.169C59.7343 259.433 50.7994 272.804 44.7036 287.521C38.6077 302.238 35.4702 318.011 35.4702 333.94C35.4702 349.87 38.6077 365.643 44.7036 380.36C50.7994 395.076 59.7343 408.448 70.998 419.712C82.2617 430.976 95.6336 439.911 110.35 446.006C125.067 452.102 140.84 455.24 156.77 455.24V455.432C179.399 455.312 204.447 442.301 226.496 426.168C248.469 410.091 266.604 391.556 275.05 381.916L282.571 388.506C273.772 398.549 255.106 417.626 232.401 434.239C209.965 450.654 182.719 465.314 156.77 465.432V465.472C153.092 465.472 149.422 465.317 145.77 465.011C132.266 463.878 118.995 460.662 106.435 455.459C90.4766 448.849 75.9767 439.161 63.7629 426.947C51.5491 414.733 41.8606 400.233 35.2505 384.275C28.6404 368.317 25.2383 351.213 25.2383 333.94C25.2383 316.668 28.6404 299.564 35.2505 283.606C41.8606 267.647 51.5491 253.148 63.7629 240.934C75.9767 228.72 90.4766 219.031 106.435 212.421C118.995 207.219 132.266 204.003 145.77 202.87C149.422 202.563 153.092 202.409 156.77 202.409V202.594C185.295 202.916 212.527 217.885 238.669 239.164C264.532 260.215 290.05 288.056 315.382 315.695L317.183 317.66C343.241 346.086 369.121 374.14 395.485 395.123C421.425 415.769 447.179 429.026 473.344 429.476V429.13C485.844 429.13 498.222 426.668 509.771 421.884C521.32 417.101 531.814 410.089 540.653 401.25C549.492 392.411 556.504 381.917 561.288 370.368C566.071 358.819 568.533 346.441 568.533 333.94C568.533 321.44 566.071 309.062 561.288 297.513C556.504 285.964 549.492 275.47 540.653 266.631C531.814 257.792 521.32 250.78 509.771 245.997ZM465.912 279.882L521.887 365.929H475.526L448.43 324.459L430.704 354.83H462.661V364.83H413.289L447.95 305.442L480.938 355.929H503.452L466.005 298.363L459.919 307.927L451.482 302.558L465.912 279.882ZM162.621 333.94C162.621 337.172 160.001 339.792 156.77 339.792C153.538 339.792 150.918 337.172 150.918 333.94C150.918 330.709 153.538 328.089 156.77 328.089C160.001 328.089 162.621 330.709 162.621 333.94ZM173.621 333.94C173.621 343.247 166.076 350.792 156.77 350.792C147.463 350.792 139.918 343.247 139.918 333.94C139.918 324.634 147.463 317.089 156.77 317.089C166.076 317.089 173.621 324.634 173.621 333.94Z" fill="url(#paint3_linear_13555_49315)"/>
<defs>
<linearGradient id="paint0_linear_13555_49315" x1="411.029" y1="0.49707" x2="411.029" y2="245.245" gradientUnits="userSpaceOnUse">
<stop stop-color="#5D94FF"/>
<stop offset="1" stop-color="#8642F2"/>
</linearGradient>
<linearGradient id="paint1_linear_13555_49315" x1="177.389" y1="459.411" x2="177.389" y2="669.27" gradientUnits="userSpaceOnUse">
<stop stop-color="#5D94FF"/>
<stop offset="1" stop-color="#8642F2"/>
</linearGradient>
<linearGradient id="paint2_linear_13555_49315" x1="392.695" y1="419.91" x2="392.695" y2="649.57" gradientUnits="userSpaceOnUse">
<stop stop-color="#5D94FF"/>
<stop offset="1" stop-color="#8642F2"/>
</linearGradient>
<linearGradient id="paint3_linear_13555_49315" x1="315.057" y1="177.585" x2="315.057" y2="490.685" gradientUnits="userSpaceOnUse">
<stop stop-color="#5D94FF"/>
<stop offset="1" stop-color="#8642F2"/>
</linearGradient>
</defs>
</svg>
